<mxfile host="app.diagrams.net" modified="2020-12-25T03:09:37.227Z" agent="5.0 (Macintosh; Intel Mac OS X 10_15_7) AppleWebKit/537.36 (KHTML, like Gecko) Chrome/86.0.4240.183 Safari/537.36" etag="jzu6JUiozOpDsJSEC6_z" version="14.1.1" type="github">
  <diagram id="Yl5MkA3VutUKW_CHRxgq" name="第 1 页">
    <mxGraphModel dx="1298" dy="737" grid="1" gridSize="10" guides="1" tooltips="1" connect="1" arrows="1" fold="1" page="1" pageScale="1" pageWidth="1169" pageHeight="1654" math="0" shadow="0">
      <root>
        <mxCell id="0" />
        <mxCell id="1" parent="0" />
        <mxCell id="4QVowCSpc3ZRNBWC6j3K-18" style="edgeStyle=orthogonalEdgeStyle;rounded=0;orthogonalLoop=1;jettySize=auto;html=1;dashed=1;exitX=0.5;exitY=1;exitDx=0;exitDy=0;fillColor=#dae8fc;strokeColor=#6c8ebf;strokeWidth=2;" edge="1" parent="1" source="4QVowCSpc3ZRNBWC6j3K-6">
          <mxGeometry relative="1" as="geometry">
            <mxPoint x="600" y="610" as="targetPoint" />
            <Array as="points">
              <mxPoint x="1018" y="660" />
              <mxPoint x="600" y="660" />
            </Array>
          </mxGeometry>
        </mxCell>
        <mxCell id="4QVowCSpc3ZRNBWC6j3K-7" style="edgeStyle=orthogonalEdgeStyle;rounded=0;orthogonalLoop=1;jettySize=auto;html=1;exitX=0.5;exitY=1;exitDx=0;exitDy=0;fillColor=#fff2cc;strokeColor=#d6b656;strokeWidth=2;" edge="1" parent="1" source="4QVowCSpc3ZRNBWC6j3K-1" target="4QVowCSpc3ZRNBWC6j3K-4">
          <mxGeometry relative="1" as="geometry">
            <Array as="points">
              <mxPoint x="230" y="580" />
            </Array>
          </mxGeometry>
        </mxCell>
        <mxCell id="4QVowCSpc3ZRNBWC6j3K-12" style="edgeStyle=orthogonalEdgeStyle;rounded=0;orthogonalLoop=1;jettySize=auto;html=1;entryX=0;entryY=0.5;entryDx=0;entryDy=0;exitX=0.5;exitY=0;exitDx=0;exitDy=0;fillColor=#d5e8d4;strokeColor=#82b366;strokeWidth=2;" edge="1" parent="1" source="4QVowCSpc3ZRNBWC6j3K-1" target="4QVowCSpc3ZRNBWC6j3K-3">
          <mxGeometry relative="1" as="geometry" />
        </mxCell>
        <mxCell id="4QVowCSpc3ZRNBWC6j3K-26" style="edgeStyle=orthogonalEdgeStyle;rounded=0;orthogonalLoop=1;jettySize=auto;html=1;entryX=0;entryY=0.5;entryDx=0;entryDy=0;strokeWidth=2;fillColor=#d5e8d4;strokeColor=#82b366;" edge="1" parent="1" source="4QVowCSpc3ZRNBWC6j3K-1" target="4QVowCSpc3ZRNBWC6j3K-24">
          <mxGeometry relative="1" as="geometry" />
        </mxCell>
        <mxCell id="4QVowCSpc3ZRNBWC6j3K-1" value="&lt;div style=&quot;text-align: center ; font-size: 14px&quot;&gt;&lt;span style=&quot;background-color: rgb(255 , 242 , 204)&quot;&gt;&lt;b style=&quot;color: rgb(64 , 72 , 91)&quot;&gt;&amp;nbsp; &amp;nbsp;功能分支：feature-[issues id]&lt;/b&gt;&lt;br&gt;&lt;/span&gt;&lt;/div&gt;&lt;div style=&quot;text-align: center ; font-size: 14px&quot;&gt;&lt;span style=&quot;background-color: rgb(255 , 242 , 204)&quot;&gt;&lt;b style=&quot;color: rgb(64 , 72 , 91)&quot;&gt;&lt;br&gt;&lt;/b&gt;&lt;/span&gt;&lt;/div&gt;&lt;span style=&quot;color: rgb(64 , 72 , 91) ; font-size: 14px&quot;&gt;&lt;div style=&quot;text-align: center&quot;&gt;&lt;font style=&quot;font-size: 14px&quot;&gt;&lt;b style=&quot;background-color: rgb(255 , 242 , 204)&quot;&gt;&amp;nbsp; bug修复分支：fix-[issues id]&lt;/b&gt;&lt;b style=&quot;background-color: rgb(255 , 255 , 255)&quot;&gt;&lt;br&gt;&lt;/b&gt;&lt;/font&gt;&lt;/div&gt;&lt;/span&gt;" style="rounded=1;whiteSpace=wrap;html=1;align=left;arcSize=16;fillColor=#fff2cc;strokeColor=#d6b656;" vertex="1" parent="1">
          <mxGeometry x="120" y="400" width="220" height="70" as="geometry" />
        </mxCell>
        <mxCell id="4QVowCSpc3ZRNBWC6j3K-3" value="&lt;font style=&quot;font-size: 14px&quot;&gt;&lt;b&gt;开发/测试环境分支：develop&lt;/b&gt;&lt;/font&gt;" style="rounded=1;whiteSpace=wrap;html=1;align=center;fillColor=#d5e8d4;strokeColor=#82b366;" vertex="1" parent="1">
          <mxGeometry x="945" y="260" width="145" height="60" as="geometry" />
        </mxCell>
        <mxCell id="4QVowCSpc3ZRNBWC6j3K-8" style="edgeStyle=orthogonalEdgeStyle;rounded=0;orthogonalLoop=1;jettySize=auto;html=1;exitX=1;exitY=0.5;exitDx=0;exitDy=0;fillColor=#d5e8d4;strokeColor=#82b366;strokeWidth=2;" edge="1" parent="1" source="4QVowCSpc3ZRNBWC6j3K-4" target="4QVowCSpc3ZRNBWC6j3K-6">
          <mxGeometry relative="1" as="geometry" />
        </mxCell>
        <mxCell id="4QVowCSpc3ZRNBWC6j3K-28" style="edgeStyle=orthogonalEdgeStyle;rounded=0;orthogonalLoop=1;jettySize=auto;html=1;entryX=0.5;entryY=1;entryDx=0;entryDy=0;strokeWidth=2;fillColor=#d5e8d4;strokeColor=#82b366;" edge="1" parent="1" source="4QVowCSpc3ZRNBWC6j3K-4" target="4QVowCSpc3ZRNBWC6j3K-24">
          <mxGeometry relative="1" as="geometry">
            <Array as="points">
              <mxPoint x="603" y="510" />
              <mxPoint x="1018" y="510" />
            </Array>
          </mxGeometry>
        </mxCell>
        <mxCell id="4QVowCSpc3ZRNBWC6j3K-4" value="&lt;font style=&quot;font-size: 14px&quot;&gt;&lt;b&gt;版本发布分支：&lt;br&gt;release-[date]&lt;/b&gt;&lt;/font&gt;" style="rounded=1;whiteSpace=wrap;html=1;fillColor=#fff2cc;strokeColor=#d6b656;" vertex="1" parent="1">
          <mxGeometry x="530" y="550" width="145" height="60" as="geometry" />
        </mxCell>
        <mxCell id="4QVowCSpc3ZRNBWC6j3K-15" style="edgeStyle=orthogonalEdgeStyle;rounded=0;orthogonalLoop=1;jettySize=auto;html=1;entryX=0;entryY=0.5;entryDx=0;entryDy=0;dashed=1;exitX=0.5;exitY=1;exitDx=0;exitDy=0;fillColor=#dae8fc;strokeColor=#6c8ebf;strokeWidth=2;" edge="1" parent="1" source="4QVowCSpc3ZRNBWC6j3K-6" target="4QVowCSpc3ZRNBWC6j3K-1">
          <mxGeometry relative="1" as="geometry">
            <Array as="points">
              <mxPoint x="1018" y="720" />
              <mxPoint x="100" y="720" />
              <mxPoint x="100" y="435" />
            </Array>
          </mxGeometry>
        </mxCell>
        <mxCell id="4QVowCSpc3ZRNBWC6j3K-6" value="&lt;font style=&quot;font-size: 14px&quot;&gt;&lt;b&gt;生产环境分支：&lt;br&gt;master&lt;/b&gt;&lt;/font&gt;" style="rounded=1;whiteSpace=wrap;html=1;fillColor=#d5e8d4;strokeColor=#82b366;" vertex="1" parent="1">
          <mxGeometry x="945" y="550" width="145" height="60" as="geometry" />
        </mxCell>
        <mxCell id="4QVowCSpc3ZRNBWC6j3K-19" value="&lt;font style=&quot;font-size: 14px&quot;&gt;&lt;b&gt;checkout&lt;/b&gt;&lt;/font&gt;" style="text;html=1;strokeColor=none;fillColor=none;align=center;verticalAlign=middle;whiteSpace=wrap;rounded=0;" vertex="1" parent="1">
          <mxGeometry x="770" y="630" width="40" height="20" as="geometry" />
        </mxCell>
        <mxCell id="4QVowCSpc3ZRNBWC6j3K-20" value="&lt;font style=&quot;font-size: 14px&quot;&gt;&lt;b&gt;checkout&lt;/b&gt;&lt;/font&gt;" style="text;html=1;strokeColor=none;fillColor=none;align=center;verticalAlign=middle;whiteSpace=wrap;rounded=0;" vertex="1" parent="1">
          <mxGeometry x="580" y="730" width="40" height="20" as="geometry" />
        </mxCell>
        <mxCell id="4QVowCSpc3ZRNBWC6j3K-21" value="&lt;font style=&quot;font-size: 14px&quot;&gt;&lt;b&gt;merge &amp;amp; build&lt;/b&gt;&lt;/font&gt;" style="text;html=1;strokeColor=none;fillColor=none;align=center;verticalAlign=middle;whiteSpace=wrap;rounded=0;" vertex="1" parent="1">
          <mxGeometry x="552.5" y="260" width="100" height="20" as="geometry" />
        </mxCell>
        <mxCell id="4QVowCSpc3ZRNBWC6j3K-22" value="&lt;font style=&quot;font-size: 14px&quot;&gt;&lt;b&gt;merge&lt;/b&gt;&lt;/font&gt;" style="text;html=1;strokeColor=none;fillColor=none;align=center;verticalAlign=middle;whiteSpace=wrap;rounded=0;" vertex="1" parent="1">
          <mxGeometry x="340" y="550" width="40" height="20" as="geometry" />
        </mxCell>
        <mxCell id="4QVowCSpc3ZRNBWC6j3K-24" value="&lt;font style=&quot;font-size: 14px&quot;&gt;&lt;b&gt;预发环境分支：release&lt;/b&gt;&lt;/font&gt;" style="rounded=1;whiteSpace=wrap;html=1;align=center;fillColor=#d5e8d4;strokeColor=#82b366;" vertex="1" parent="1">
          <mxGeometry x="945" y="405" width="145" height="60" as="geometry" />
        </mxCell>
        <mxCell id="4QVowCSpc3ZRNBWC6j3K-30" value="&lt;font style=&quot;font-size: 14px&quot;&gt;&lt;b&gt;merge &amp;amp; build&lt;/b&gt;&lt;/font&gt;" style="text;html=1;strokeColor=none;fillColor=none;align=center;verticalAlign=middle;whiteSpace=wrap;rounded=0;" vertex="1" parent="1">
          <mxGeometry x="552.5" y="405" width="100" height="20" as="geometry" />
        </mxCell>
        <mxCell id="4QVowCSpc3ZRNBWC6j3K-31" value="&lt;font style=&quot;font-size: 14px&quot;&gt;&lt;b&gt;merge &amp;amp; build&lt;/b&gt;&lt;/font&gt;" style="text;html=1;strokeColor=none;fillColor=none;align=center;verticalAlign=middle;whiteSpace=wrap;rounded=0;" vertex="1" parent="1">
          <mxGeometry x="740" y="480" width="100" height="20" as="geometry" />
        </mxCell>
        <mxCell id="4QVowCSpc3ZRNBWC6j3K-32" value="&lt;font style=&quot;font-size: 14px&quot;&gt;&lt;b&gt;merge &amp;amp; build&lt;/b&gt;&lt;/font&gt;" style="text;html=1;strokeColor=none;fillColor=none;align=center;verticalAlign=middle;whiteSpace=wrap;rounded=0;" vertex="1" parent="1">
          <mxGeometry x="740" y="550" width="100" height="20" as="geometry" />
        </mxCell>
        <mxCell id="4QVowCSpc3ZRNBWC6j3K-33" value="&lt;div style=&quot;text-align: justify&quot;&gt;&lt;b style=&quot;font-size: 14px&quot;&gt;黄色为短期分支&lt;/b&gt;&lt;/div&gt;&lt;font style=&quot;font-size: 14px&quot;&gt;&lt;div style=&quot;text-align: justify&quot;&gt;&lt;b&gt;用完可删除&lt;/b&gt;&lt;/div&gt;&lt;/font&gt;" style="rounded=1;whiteSpace=wrap;html=1;align=left;fillColor=#fff2cc;strokeColor=#d6b656;" vertex="1" parent="1">
          <mxGeometry x="100" y="110" width="110" height="50" as="geometry" />
        </mxCell>
        <mxCell id="4QVowCSpc3ZRNBWC6j3K-34" value="&lt;div style=&quot;text-align: justify&quot;&gt;&lt;b style=&quot;font-size: 14px&quot;&gt;绿色为长期分支&lt;/b&gt;&lt;/div&gt;&lt;font style=&quot;font-size: 14px&quot;&gt;&lt;div style=&quot;text-align: justify&quot;&gt;&lt;b&gt;不可删除&lt;/b&gt;&lt;/div&gt;&lt;/font&gt;" style="rounded=1;whiteSpace=wrap;html=1;align=left;fillColor=#d5e8d4;strokeColor=#82b366;" vertex="1" parent="1">
          <mxGeometry x="240" y="110" width="110" height="50" as="geometry" />
        </mxCell>
      </root>
    </mxGraphModel>
  </diagram>
</mxfile>
